<svg xmlns="http://www.w3.org/2000/svg" fill="none" viewBox="0 0 128 128">
	<path d="M50.4 78.5a75.1 75.1 0 0 0-28.5 6.9l24.2-65.7c.7-2 1.9-3.2 3.4-3.2h29.2c1.5 0 2.7 1.2 3.4 3.2l24.2 65.7s-11.6-7-28.5-6.9c-15.4 1-30.7 3.4-40.7 13.7zm78.3 12c1.2-3.5.45-7.1-2.3-9.8l-15.8-15.8c-2.4-2.4-6.4-2.4-8.8 0-.5.5-1.8 1.8-5.7 5.7-.3.3-.7.5-1 .5V76c0-3.1-2.6-5.6-5.6-5.6H26.4c-3.1 0-5.6 2.6-5.6 5.6v30.2c0 3.1 2.6 5.6 5.6 5.6h78.2c3 0 5.6-2.6 5.6-5.6v-6.5c.3.3.5.7 1 1l15.8 15.8c2.7 2.7 6.3 3.5 9.8 2.3 3.5-1.1 5.7-4.6 5.7-8.1 0-2.4-.9-4.6-2.3-6.2L128 88c2.4-2.4 2.4-6.4 0-8.8z"/>
</svg>
